<mxfile host="app.diagrams.net" modified="2020-10-05T03:55:19.004Z" agent="5.0 (X11; Linux x86_64) AppleWebKit/537.36 (KHTML, like Gecko) Chrome/85.0.4183.121 Safari/537.36" etag="0AvzTw1gH97L468fPguu" version="13.7.7" type="github" pages="2">
  <diagram name="Page-1" id="c7558073-3199-34d8-9f00-42111426c3f3">
    <mxGraphModel dx="1185" dy="636" grid="1" gridSize="10" guides="1" tooltips="1" connect="1" arrows="1" fold="1" page="1" pageScale="1" pageWidth="826" pageHeight="1169" background="#ffffff" math="0" shadow="0">
      <root>
        <mxCell id="0" />
        <mxCell id="1" parent="0" />
        <mxCell id="JwEqC0J2RQK7RZRPnalC-108" value="" style="edgeStyle=orthogonalEdgeStyle;rounded=0;orthogonalLoop=1;jettySize=auto;html=1;entryX=0.5;entryY=0;entryDx=0;entryDy=0;" edge="1" parent="1">
          <mxGeometry relative="1" as="geometry">
            <mxPoint x="415" y="109" as="sourcePoint" />
            <mxPoint x="412" y="139" as="targetPoint" />
          </mxGeometry>
        </mxCell>
        <mxCell id="JwEqC0J2RQK7RZRPnalC-96" value="start" style="ellipse;whiteSpace=wrap;html=1;" vertex="1" parent="1">
          <mxGeometry x="353" y="30" width="120" height="80" as="geometry" />
        </mxCell>
        <mxCell id="JwEqC0J2RQK7RZRPnalC-106" style="edgeStyle=orthogonalEdgeStyle;rounded=0;orthogonalLoop=1;jettySize=auto;html=1;" edge="1" parent="1" source="JwEqC0J2RQK7RZRPnalC-97" target="JwEqC0J2RQK7RZRPnalC-99">
          <mxGeometry relative="1" as="geometry">
            <Array as="points">
              <mxPoint x="410" y="220" />
              <mxPoint x="410" y="220" />
            </Array>
          </mxGeometry>
        </mxCell>
        <mxCell id="JwEqC0J2RQK7RZRPnalC-97" value="int i = 1, number" style="rounded=0;whiteSpace=wrap;html=1;" vertex="1" parent="1">
          <mxGeometry x="350" y="140" width="120" height="60" as="geometry" />
        </mxCell>
        <mxCell id="JwEqC0J2RQK7RZRPnalC-98" value="input number" style="shape=parallelogram;perimeter=parallelogramPerimeter;whiteSpace=wrap;html=1;fixedSize=1;" vertex="1" parent="1">
          <mxGeometry x="350" y="220" width="120" height="60" as="geometry" />
        </mxCell>
        <mxCell id="JwEqC0J2RQK7RZRPnalC-101" value="" style="edgeStyle=orthogonalEdgeStyle;rounded=0;orthogonalLoop=1;jettySize=auto;html=1;" edge="1" parent="1" source="JwEqC0J2RQK7RZRPnalC-99">
          <mxGeometry relative="1" as="geometry">
            <mxPoint x="410" y="440" as="targetPoint" />
          </mxGeometry>
        </mxCell>
        <mxCell id="JwEqC0J2RQK7RZRPnalC-113" value="" style="edgeStyle=orthogonalEdgeStyle;rounded=0;orthogonalLoop=1;jettySize=auto;html=1;" edge="1" parent="1" source="JwEqC0J2RQK7RZRPnalC-99" target="JwEqC0J2RQK7RZRPnalC-112">
          <mxGeometry relative="1" as="geometry" />
        </mxCell>
        <mxCell id="JwEqC0J2RQK7RZRPnalC-99" value="i&amp;lt;=number" style="rhombus;whiteSpace=wrap;html=1;" vertex="1" parent="1">
          <mxGeometry x="350" y="300" width="120" height="110" as="geometry" />
        </mxCell>
        <mxCell id="JwEqC0J2RQK7RZRPnalC-104" value="" style="edgeStyle=orthogonalEdgeStyle;rounded=0;orthogonalLoop=1;jettySize=auto;html=1;" edge="1" parent="1" source="JwEqC0J2RQK7RZRPnalC-102" target="JwEqC0J2RQK7RZRPnalC-103">
          <mxGeometry relative="1" as="geometry" />
        </mxCell>
        <mxCell id="JwEqC0J2RQK7RZRPnalC-102" value="i += 2" style="rounded=0;whiteSpace=wrap;html=1;" vertex="1" parent="1">
          <mxGeometry x="350" y="450" width="120" height="60" as="geometry" />
        </mxCell>
        <mxCell id="JwEqC0J2RQK7RZRPnalC-110" style="edgeStyle=orthogonalEdgeStyle;rounded=0;orthogonalLoop=1;jettySize=auto;html=1;" edge="1" parent="1" source="JwEqC0J2RQK7RZRPnalC-103">
          <mxGeometry relative="1" as="geometry">
            <mxPoint x="590" y="360" as="targetPoint" />
          </mxGeometry>
        </mxCell>
        <mxCell id="JwEqC0J2RQK7RZRPnalC-103" value="print i" style="shape=parallelogram;perimeter=parallelogramPerimeter;whiteSpace=wrap;html=1;fixedSize=1;rounded=0;" vertex="1" parent="1">
          <mxGeometry x="350" y="540" width="120" height="60" as="geometry" />
        </mxCell>
        <mxCell id="JwEqC0J2RQK7RZRPnalC-111" value="" style="endArrow=classic;html=1;entryX=1;entryY=0.5;entryDx=0;entryDy=0;" edge="1" parent="1" target="JwEqC0J2RQK7RZRPnalC-99">
          <mxGeometry width="50" height="50" relative="1" as="geometry">
            <mxPoint x="590" y="355" as="sourcePoint" />
            <mxPoint x="640" y="310" as="targetPoint" />
          </mxGeometry>
        </mxCell>
        <mxCell id="JwEqC0J2RQK7RZRPnalC-112" value="end" style="ellipse;whiteSpace=wrap;html=1;" vertex="1" parent="1">
          <mxGeometry x="150" y="315" width="120" height="80" as="geometry" />
        </mxCell>
      </root>
    </mxGraphModel>
  </diagram>
  <diagram id="28CEQ63KW9Y7ZgvKFi5T" name="Page-2">
    <mxGraphModel dx="1422" dy="763" grid="1" gridSize="10" guides="1" tooltips="1" connect="1" arrows="1" fold="1" page="1" pageScale="1" pageWidth="850" pageHeight="1100" math="0" shadow="0">
      <root>
        <mxCell id="9jFCvAEOd0Qw9xZTJoOg-0" />
        <mxCell id="9jFCvAEOd0Qw9xZTJoOg-1" parent="9jFCvAEOd0Qw9xZTJoOg-0" />
        <mxCell id="9jFCvAEOd0Qw9xZTJoOg-4" value="" style="edgeStyle=orthogonalEdgeStyle;rounded=0;orthogonalLoop=1;jettySize=auto;html=1;" edge="1" parent="9jFCvAEOd0Qw9xZTJoOg-1" source="9jFCvAEOd0Qw9xZTJoOg-2" target="9jFCvAEOd0Qw9xZTJoOg-3">
          <mxGeometry relative="1" as="geometry" />
        </mxCell>
        <mxCell id="9jFCvAEOd0Qw9xZTJoOg-2" value="start" style="ellipse;whiteSpace=wrap;html=1;" vertex="1" parent="9jFCvAEOd0Qw9xZTJoOg-1">
          <mxGeometry x="360" y="20" width="120" height="80" as="geometry" />
        </mxCell>
        <mxCell id="9jFCvAEOd0Qw9xZTJoOg-6" value="" style="edgeStyle=orthogonalEdgeStyle;rounded=0;orthogonalLoop=1;jettySize=auto;html=1;" edge="1" parent="9jFCvAEOd0Qw9xZTJoOg-1" source="9jFCvAEOd0Qw9xZTJoOg-3" target="9jFCvAEOd0Qw9xZTJoOg-5">
          <mxGeometry relative="1" as="geometry" />
        </mxCell>
        <mxCell id="9jFCvAEOd0Qw9xZTJoOg-3" value="int a,b,c = 0" style="whiteSpace=wrap;html=1;" vertex="1" parent="9jFCvAEOd0Qw9xZTJoOg-1">
          <mxGeometry x="360" y="130" width="120" height="60" as="geometry" />
        </mxCell>
        <mxCell id="9jFCvAEOd0Qw9xZTJoOg-8" value="" style="edgeStyle=orthogonalEdgeStyle;rounded=0;orthogonalLoop=1;jettySize=auto;html=1;" edge="1" parent="9jFCvAEOd0Qw9xZTJoOg-1" source="9jFCvAEOd0Qw9xZTJoOg-5" target="9jFCvAEOd0Qw9xZTJoOg-7">
          <mxGeometry relative="1" as="geometry" />
        </mxCell>
        <mxCell id="9jFCvAEOd0Qw9xZTJoOg-5" value="input b" style="shape=parallelogram;perimeter=parallelogramPerimeter;whiteSpace=wrap;html=1;fixedSize=1;" vertex="1" parent="9jFCvAEOd0Qw9xZTJoOg-1">
          <mxGeometry x="360" y="220" width="120" height="60" as="geometry" />
        </mxCell>
        <mxCell id="9jFCvAEOd0Qw9xZTJoOg-10" value="" style="edgeStyle=orthogonalEdgeStyle;rounded=0;orthogonalLoop=1;jettySize=auto;html=1;" edge="1" parent="9jFCvAEOd0Qw9xZTJoOg-1" source="9jFCvAEOd0Qw9xZTJoOg-7" target="9jFCvAEOd0Qw9xZTJoOg-9">
          <mxGeometry relative="1" as="geometry" />
        </mxCell>
        <mxCell id="9jFCvAEOd0Qw9xZTJoOg-20" value="" style="edgeStyle=orthogonalEdgeStyle;rounded=0;orthogonalLoop=1;jettySize=auto;html=1;" edge="1" parent="9jFCvAEOd0Qw9xZTJoOg-1" source="9jFCvAEOd0Qw9xZTJoOg-7" target="9jFCvAEOd0Qw9xZTJoOg-19">
          <mxGeometry relative="1" as="geometry" />
        </mxCell>
        <mxCell id="9jFCvAEOd0Qw9xZTJoOg-7" value="a=b&lt;br&gt;a&amp;gt;0" style="rhombus;whiteSpace=wrap;html=1;" vertex="1" parent="9jFCvAEOd0Qw9xZTJoOg-1">
          <mxGeometry x="350" y="320" width="140" height="140" as="geometry" />
        </mxCell>
        <mxCell id="9jFCvAEOd0Qw9xZTJoOg-12" value="" style="edgeStyle=orthogonalEdgeStyle;rounded=0;orthogonalLoop=1;jettySize=auto;html=1;" edge="1" parent="9jFCvAEOd0Qw9xZTJoOg-1" source="9jFCvAEOd0Qw9xZTJoOg-9" target="9jFCvAEOd0Qw9xZTJoOg-11">
          <mxGeometry relative="1" as="geometry" />
        </mxCell>
        <mxCell id="9jFCvAEOd0Qw9xZTJoOg-9" value="print a" style="shape=parallelogram;perimeter=parallelogramPerimeter;whiteSpace=wrap;html=1;fixedSize=1;" vertex="1" parent="9jFCvAEOd0Qw9xZTJoOg-1">
          <mxGeometry x="360" y="490" width="120" height="60" as="geometry" />
        </mxCell>
        <mxCell id="9jFCvAEOd0Qw9xZTJoOg-14" value="" style="edgeStyle=orthogonalEdgeStyle;rounded=0;orthogonalLoop=1;jettySize=auto;html=1;" edge="1" parent="9jFCvAEOd0Qw9xZTJoOg-1" source="9jFCvAEOd0Qw9xZTJoOg-11" target="9jFCvAEOd0Qw9xZTJoOg-13">
          <mxGeometry relative="1" as="geometry" />
        </mxCell>
        <mxCell id="9jFCvAEOd0Qw9xZTJoOg-11" value="a!= 1" style="rhombus;whiteSpace=wrap;html=1;" vertex="1" parent="9jFCvAEOd0Qw9xZTJoOg-1">
          <mxGeometry x="380" y="570" width="80" height="80" as="geometry" />
        </mxCell>
        <mxCell id="9jFCvAEOd0Qw9xZTJoOg-16" value="" style="edgeStyle=orthogonalEdgeStyle;rounded=0;orthogonalLoop=1;jettySize=auto;html=1;" edge="1" parent="9jFCvAEOd0Qw9xZTJoOg-1" source="9jFCvAEOd0Qw9xZTJoOg-13" target="9jFCvAEOd0Qw9xZTJoOg-15">
          <mxGeometry relative="1" as="geometry" />
        </mxCell>
        <mxCell id="9jFCvAEOd0Qw9xZTJoOg-21" style="edgeStyle=orthogonalEdgeStyle;rounded=0;orthogonalLoop=1;jettySize=auto;html=1;" edge="1" parent="9jFCvAEOd0Qw9xZTJoOg-1" source="9jFCvAEOd0Qw9xZTJoOg-13">
          <mxGeometry relative="1" as="geometry">
            <mxPoint x="200" y="400" as="targetPoint" />
          </mxGeometry>
        </mxCell>
        <mxCell id="9jFCvAEOd0Qw9xZTJoOg-13" value="print +" style="shape=parallelogram;perimeter=parallelogramPerimeter;whiteSpace=wrap;html=1;fixedSize=1;" vertex="1" parent="9jFCvAEOd0Qw9xZTJoOg-1">
          <mxGeometry x="360" y="680" width="120" height="60" as="geometry" />
        </mxCell>
        <mxCell id="9jFCvAEOd0Qw9xZTJoOg-18" value="" style="edgeStyle=orthogonalEdgeStyle;rounded=0;orthogonalLoop=1;jettySize=auto;html=1;" edge="1" parent="9jFCvAEOd0Qw9xZTJoOg-1" source="9jFCvAEOd0Qw9xZTJoOg-15" target="9jFCvAEOd0Qw9xZTJoOg-17">
          <mxGeometry relative="1" as="geometry" />
        </mxCell>
        <mxCell id="9jFCvAEOd0Qw9xZTJoOg-15" value="c = c+a" style="whiteSpace=wrap;html=1;" vertex="1" parent="9jFCvAEOd0Qw9xZTJoOg-1">
          <mxGeometry x="360" y="770" width="120" height="60" as="geometry" />
        </mxCell>
        <mxCell id="9jFCvAEOd0Qw9xZTJoOg-24" style="edgeStyle=orthogonalEdgeStyle;rounded=0;orthogonalLoop=1;jettySize=auto;html=1;" edge="1" parent="9jFCvAEOd0Qw9xZTJoOg-1" source="9jFCvAEOd0Qw9xZTJoOg-17">
          <mxGeometry relative="1" as="geometry">
            <mxPoint x="730" y="580" as="targetPoint" />
          </mxGeometry>
        </mxCell>
        <mxCell id="9jFCvAEOd0Qw9xZTJoOg-17" value="print &quot;Hasil :&quot;,c" style="shape=parallelogram;perimeter=parallelogramPerimeter;whiteSpace=wrap;html=1;fixedSize=1;" vertex="1" parent="9jFCvAEOd0Qw9xZTJoOg-1">
          <mxGeometry x="360" y="860" width="120" height="60" as="geometry" />
        </mxCell>
        <mxCell id="9jFCvAEOd0Qw9xZTJoOg-19" value="end" style="ellipse;whiteSpace=wrap;html=1;" vertex="1" parent="9jFCvAEOd0Qw9xZTJoOg-1">
          <mxGeometry x="670" y="490" width="120" height="80" as="geometry" />
        </mxCell>
        <mxCell id="9jFCvAEOd0Qw9xZTJoOg-23" value="" style="endArrow=classic;html=1;entryX=0;entryY=0.5;entryDx=0;entryDy=0;" edge="1" parent="9jFCvAEOd0Qw9xZTJoOg-1" target="9jFCvAEOd0Qw9xZTJoOg-7">
          <mxGeometry width="50" height="50" relative="1" as="geometry">
            <mxPoint x="200" y="390" as="sourcePoint" />
            <mxPoint x="260" y="390" as="targetPoint" />
          </mxGeometry>
        </mxCell>
        <mxCell id="9jFCvAEOd0Qw9xZTJoOg-25" value="True" style="text;html=1;align=center;verticalAlign=middle;resizable=0;points=[];autosize=1;" vertex="1" parent="9jFCvAEOd0Qw9xZTJoOg-1">
          <mxGeometry x="370" y="460" width="40" height="20" as="geometry" />
        </mxCell>
        <mxCell id="9jFCvAEOd0Qw9xZTJoOg-26" value="False" style="text;html=1;align=center;verticalAlign=middle;resizable=0;points=[];autosize=1;" vertex="1" parent="9jFCvAEOd0Qw9xZTJoOg-1">
          <mxGeometry x="560" y="360" width="40" height="20" as="geometry" />
        </mxCell>
      </root>
    </mxGraphModel>
  </diagram>
</mxfile>
